<svg width="238" height="215" viewBox="0 0 238 215" fill="none" xmlns="http://www.w3.org/2000/svg">
<path d="M220.032 125.077C213.867 176.879 115.896 190.55 73.8205 155.365C6.10033 98.7343 31.4628 17.8537 82.7108 17.8535C124.095 17.8533 104.281 43.1032 138.517 64.2544C175.233 86.9374 225.719 77.2972 220.032 125.077Z" fill="#FFE2CE"/>
<rect x="53.1765" y="51.2766" width="117.883" height="109.105" rx="16" fill="#4F415D"/>
<rect x="65.9292" y="70.017" width="72.615" height="72.615" transform="rotate(-45 65.9292 70.017)" fill="#1FB573"/>
<path fill-rule="evenodd" clip-rule="evenodd" d="M128.224 43.4141C125.315 45.1803 121.418 46.2603 117.134 46.2603C112.937 46.2603 109.111 45.2234 106.221 43.5199L65.9292 83.812L117.276 135.159L168.622 83.812L128.224 43.4141Z" fill="#2FE789"/>
<rect x="53.1765" y="67.5796" width="134.186" height="92.8017" rx="16" fill="#4F415D"/>
<rect x="145.93" y="102.067" width="46.4009" height="26.3356" rx="8" fill="#6D5B83"/>
<circle cx="159.725" cy="115.235" r="7.52447" fill="#FFE2CE"/>
<path d="M69.4311 21.8057V39.3628M60.6526 30.5843H78.2097" stroke="#FFBE92" stroke-width="3"/>
<path d="M177.282 43.1251V53.1577M172.265 48.1414H182.298" stroke="#FFBE92" stroke-width="2"/>
<circle cx="100.156" cy="9.89202" r="3.38927" stroke="#F77D2A" stroke-width="2"/>
</svg>
